Patient4_TMGait_0pt6_02_right_11_EMG.mot
version=1
nRows=33
nColumns=33
inDegrees=no
endheader
time	1LAddLong	2LGlutMax	3LGlutMed	4LIliopsoas	5LSemiMemb	6LBicFemLong	7LRecFem	8LVastMed	9LVastLat	10LGasMed	11LTibAnt	12lTibPost	13LPeroneusLong	14LSol	15LExtDigLong	16LFlexDigLong	17RAddLong	18RGlutMax	19RGlutMed	20RIliopsoas	21RSemiMemb	22RBicFemLong	23RRecFem	24RVastMed	25RVastLat	26RGasMed	27RTibAnt	28RTibPost	29RPeroneusLong	30RSol	31RExtDigLong	32RFlexDigLong
13.775	0.009613	0.28061	-0.033722	0.007935	0.018768	0.12604	-0.1091	0.013885	-0.012817	-0.010376	0.10452	-0.009003	-0.036316	-0.007172	0.011444	-0.007019	-0.003357	0.81222	0.19547	-0.032654	-0.031281	-0.093689	-0.20096	-0.03952	-0.067749	-0.017395	-0.23086	-0.011292	0.85846	0.087433	-0.005035	-0.015564
13.776	0.016174	0.27145	0.005798	0.018463	-0.031586	0.271	-0.13519	0.010681	0.015564	0.001221	-0.06012	-0.010071	-0.014954	0.009766	0.032196	0.00061	0.005798	0.98785	0.39261	0.061188	-0.032806	-0.096893	-0.16235	-0.024567	-0.042725	-0.004883	0.25391	-0.002747	0.858	0.053101	-0.005493	-0.008698
13.777	0.006866	0.22278	0.007172	0.011597	-0.071716	0.31311	-0.12772	0.009918	0.062866	0.041199	-0.023499	-0.020905	0.4422	0.026245	0.083923	-0.000458	0.00351	1.1321	0.2742	0.045929	-0.036163	-0.11017	-0.2272	-0.029907	-0.029297	0.006256	-0.34943	-0.004883	0.55496	0.010834	-0.00946	-0.005493
13.778	-0.004883	0.20523	-0.090637	-0.010529	-0.092163	0.29129	-0.10574	0.005646	0.11261	0.088959	0.006866	-0.009155	0.50613	0.10849	0.08606	-0.002136	0.00885	1.2332	0.12787	-0.066376	-0.03479	-0.055542	-0.2565	-0.023804	0.006561	0.028687	-0.35004	-0.004578	1.6127	-0.1474	0.000916	-0.003662
13.779	-0.007019	0.19226	0.002136	-0.011597	-0.13016	0.24933	-0.09613	0.009155	0.15625	0.18433	0.054169	-0.007324	0.11093	0.11047	0.063019	0.002747	-0.001831	1.1667	0.072174	-0.12665	-0.036011	-0.019684	-0.32394	-0.000763	0.10391	0.030212	0.12314	-0.003357	1.1826	-0.26916	0.002136	-0.000916
13.78	-0.014343	0.15762	0.064392	-0.005798	-0.063477	0.13825	-0.083313	0.01709	0.094757	0.17105	0.065308	-0.006104	-0.25467	0.1474	0.06424	0.007629	0.002899	1.1578	0.16144	-0.049591	-0.055695	-0.006714	-0.3186	-0.001526	0.14343	0.018158	0.44128	-0.003357	-0.02243	-0.12955	-0.000305	-0.009003
13.781	-0.003967	0.18387	0.18478	0.023346	-0.027924	-0.1149	-0.058441	0.008087	0.015259	0.070038	-0.013428	0.000916	0.46448	0.19928	0.059662	0.000916	-0.003204	1.1394	0.14542	0.13428	-0.057983	0.00824	-0.22049	-0.010681	0.095673	0.006866	0.62637	-0.002594	-0.94605	-0.0383	-0.004883	-0.007324
13.782	-0.002747	0.14694	0.044861	0.036469	-0.003357	-0.34058	-0.045624	0.008698	-0.074615	-0.003357	-0.08606	-0.009003	0.61172	0.23132	-0.016022	0.008087	-0.001221	1.0634	0.0737	0.21912	-0.042419	0.010223	-0.1886	-0.005951	0.054474	-0.001373	0.457	-0.008545	-0.86212	-0.02182	0.000153	-0.00351
13.783	-0.018616	0.11292	-0.020905	0.003967	0.046997	-0.2742	-0.01236	0.011597	-0.14221	-0.11993	-0.017548	-0.007019	-0.06897	0.055237	-0.11169	-0.00885	0.005035	0.94544	0.076752	0.08728	-0.022888	-0.001831	-0.13534	0.030518	0.021515	0.003815	-0.21606	-0.009155	0.36453	0.18723	0.000153	-0.007935
13.784	-0.033264	0.06897	-0.000305	-0.015106	0.005798	-0.21881	-0.011139	0.011749	-0.12756	-0.24475	0.03479	-0.000916	-0.35263	-0.099792	-0.23148	-0.011749	0.010223	0.85663	0.15045	-0.008698	-0.014496	-0.064392	-0.13718	-0.018311	-0.007629	-0.008087	-0.46036	-0.002899	-0.69473	0.30411	-0.00351	-0.010681
13.785	-0.040436	0.050964	0.019989	-0.012817	-0.076294	-0.085754	-0.021362	0.033264	-0.098419	-0.24063	0.014343	0.001068	-0.095367	-0.12009	-0.060272	0.008392	0.007324	0.75043	0.20737	-0.019379	0.027161	-0.17181	-0.14313	-0.005035	-0.019379	-0.011902	-0.27725	-0.003357	-1.6565	0.34851	0.003357	-0.006561
13.786	-0.040283	0.076141	0.036316	0.012207	-0.13199	0.11917	-0.010071	0.035553	-0.079041	-0.19073	0.03952	-0.001068	-0.25131	-0.09613	0.10803	0.002441	0.000763	0.7135	0.30167	0.072479	0.03952	-0.21301	-0.16159	0.041504	-0.015564	-0.010376	-0.051422	-0.010376	0.49881	0.30304	0.000458	-0.008545
13.787	-0.036011	0.037994	0.022278	0.015869	-0.040436	0.14893	-0.020142	0.031128	-0.11231	-0.065308	0.030365	-0.002441	-0.21713	-0.1236	0.010681	0.001526	-0.001526	0.63431	0.30868	0.18005	0.037994	-0.14694	-0.27969	0.051422	-0.044861	-0.010834	0.13199	-0.003052	0.20187	0.090332	0.001221	-0.007477
13.788	-0.029297	-0.023041	0.057526	0.038605	0.12833	0.072327	-0.057678	0.02182	-0.14236	0.077972	-0.035095	-0.001831	-0.003052	-0.079193	-0.11993	-0.002747	-0.000305	0.60623	0.30899	0.22888	0.033417	-0.15198	-0.32669	0.020752	0.052185	-0.011902	0.032043	-0.00473	-1.0611	-0.009003	-0.00412	-0.007477
13.789	-0.031891	-0.077972	-0.007782	0.020752	0.16022	0.22903	-0.079193	0.011597	-0.13382	0.17609	-0.070953	0.007629	0.030365	-0.095062	-0.1091	0.003815	0.001068	0.5806	0.31143	0.097504	-0.000763	-0.17914	-0.21942	-0.01236	0.011444	-0.006714	-0.27222	-0.004578	-1.017	-0.10986	0.001526	-0.0177
13.79	-0.039978	-0.040741	0.00351	0.002747	0.10407	0.43152	-0.063019	0.012817	-0.10635	0.31311	-0.040436	0.010529	0.043945	-0.1738	0.019989	0.006104	0.00885	0.46051	0.19653	-0.026398	-0.037842	-0.17319	-0.19913	-0.028076	-0.019989	-0.005493	0.29785	-0.001831	-0.13275	-0.067596	0.001221	-0.016785
13.791	-0.048218	-0.072784	0.020752	-0.003662	-0.016327	0.39612	-0.063629	0.018005	-0.045471	0.44357	0.005493	0.005951	-0.063934	-0.19211	0.11749	0.006256	0.002747	0.40512	0.16144	-0.035553	-0.053558	-0.086365	-0.23895	-0.001984	-0.01709	0.018768	1.0869	-0.00061	-0.078888	-0.1767	-0.001068	-0.004425
13.792	-0.040741	-0.087738	0.02182	0.010681	-0.13458	0.055084	-0.09964	0.014191	0.052643	0.32227	-0.007019	0.004578	0.031433	-0.12741	0.092621	0.02594	-0.000305	0.36285	0.14389	-0.002747	-0.049896	-0.026398	-0.13046	0.022736	-0.050659	0.015106	0.59204	-0.000458	-0.024872	-0.16663	-0.003815	-0.002441
13.793	-0.000763	-0.10651	0.082245	-0.004578	-0.10574	-0.088806	-0.13718	-0.001068	0.15106	-0.075684	0.028534	0.003357	0.096893	-0.11063	0.038757	0.012512	0.013733	0.23193	0.19043	-0.047607	-0.015869	-0.026245	-0.048828	-0.048676	-0.072937	0.001373	0.44861	-0.004578	0.41458	-0.16327	-0.000763	-0.00946
13.794	0.035553	-0.09964	0.031433	0.003357	-0.095215	-0.11612	-0.06134	-0.008545	0.1857	-0.23239	0.10666	0.007935	0.15595	-0.11932	0.074768	0.006714	0.010681	0.20737	0.21301	-0.075226	0.014954	-0.053711	-0.022736	-0.03006	-0.081177	-0.009613	0.57556	-0.002289	0.27008	-0.094452	0.001068	-0.006409
13.795	0.049438	-0.09079	-0.00946	0.004578	0.064087	-0.11261	0.049286	-0.011749	0.13901	-0.19653	0.061493	0.010071	0.056763	-0.10864	0.17624	0.005035	0.010071	0.15228	0.19257	-0.088806	0.034943	-0.070038	0.053864	-0.030365	-0.06012	-0.014038	0.53345	-0.002594	-0.41565	0.004883	-0.001526	-0.014954
13.796	0.051575	-0.13153	-0.057678	-0.009308	0.18158	-0.001678	0.081329	-0.012512	0.079041	-0.19226	0.036469	0.014648	-0.014038	-0.070801	-0.055847	0.013885	0.018311	0.15411	0.24017	-0.044861	0.053101	-0.18936	0.053253	-0.016937	-0.093689	-0.003662	0.37628	0.000305	0.032959	0.068359	-0.004272	-0.01236
13.797	0.032501	-0.091248	-0.094757	0.009308	0.12299	0.12375	0.014496	-0.008392	0.084991	-0.1033	0.050812	-0.011444	0.018768	-0.005341	-0.062714	0.002899	0.007477	0.12589	0.28305	-0.11841	0.027618	-0.1947	-0.022278	-0.095673	-0.087585	0.006714	-0.90393	0.001221	-0.71564	0.04364	-0.001221	-0.010681
13.798	0.021973	-0.11353	-0.061798	0.012207	0.10819	-0.035858	-0.051117	-0.005493	0.14236	-0.098877	0.024109	0.003662	0.014191	0.048218	-0.067596	0.005188	0.014496	0.060577	0.38177	-0.1149	0.016022	-0.15778	-0.2121	-0.16129	-0.11993	-0.004272	-1.3614	-0.002747	-0.26199	0.053253	-0.000916	-0.006409
13.799	0.014038	-0.058441	-0.095673	0.015106	0.066528	-0.33432	-0.095978	0.018921	0.094604	-0.079651	0.06897	0.007782	-0.001831	0.074615	0.027161	0.005951	0.000305	0.047607	0.23041	-0.11795	0.018921	-0.10071	-0.33829	-0.14267	-0.16892	-0.012207	-0.88074	-0.000763	0.495	0.005646	-0.001221	-0.011902
13.8	0.014954	-0.057068	0.000305	-0.004883	0.081177	0.039978	-0.15182	0.034485	0.10361	-0.064545	-0.007782	0.005188	0.02243	0.097351	0.092163	0.030212	0.005035	0.010071	0.28214	-0.081024	0.010681	-0.10193	-0.45609	-0.21729	-0.1561	0.002899	-0.82169	-0.003204	1.0966	-0.15427	0.003052	-0.001221
13.801	0.02594	-0.078278	0.012817	0.003967	0.073853	0.41199	-0.14145	0.03006	0.078278	-0.052185	-0.10071	0.007629	0.069275	0.068817	0.29556	0.007019	0.009613	-0.019226	0.20462	0.076447	-0.010376	-0.10101	-0.40436	-0.21576	-0.013885	0.005493	-0.47424	-0.003204	-0.049591	-0.15015	-0.001221	-0.007477
13.802	0.02121	-0.080414	0.020752	-0.003967	0.059357	0.34668	-0.16754	0.026245	0.063171	-0.17914	-0.04837	-0.005951	0.096436	0.057526	0.12711	0.017242	0.010071	-0.030518	0.12878	0.1265	0.000153	-0.092316	-0.34042	0.024109	0.095215	0.004425	0.014191	-0.004578	-2.5847	-0.11383	0.003357	-0.005951
13.803	0.015411	-0.014343	0.01358	-0.001068	0.068359	-0.001984	-0.13046	0.016022	0.063019	-0.15549	0.002899	-0.001831	0.0737	0.05722	0.023499	0.010071	0.006104	-0.089874	0.073547	0.06485	0.000458	-0.099945	-0.21423	0.22583	0.052948	0.00061	0.40756	-0.001678	-2.0494	0.005646	-0.002899	-0.008698
13.804	-0.001068	0.041504	0.11704	0.012512	0.058441	-0.16586	-0.039368	0.010986	-0.005646	-0.09552	0.038757	0.009155	0.016479	0.077667	-0.042267	0.006104	0.014038	-0.11581	0.23758	-0.006256	-0.009613	-0.096436	-0.091858	0.13107	-0.055389	0.007782	0.3009	-0.003204	1.1766	0.043945	0.011139	-0.006714
13.805	-0.029755	0.066223	0.086212	0.006866	-0.012207	-0.14267	-0.002747	-0.036469	-0.19684	-0.06073	0.043335	0.007782	-0.006561	0.061188	-0.094299	0.014038	0.010223	-0.17731	0.056763	0.011749	-0.01236	-0.094604	-0.20798	0.097809	-0.012207	0.009918	-0.091553	-0.004425	1.2117	0.059814	0.000153	-0.006104
13.806	-0.035095	0.13199	0.059204	0.020752	-0.083771	-0.32928	0.039368	-0.006409	-0.29511	-0.039673	0.043488	0.013428	0.10346	0.031128	-0.1207	0.009155	0.006714	-0.16083	-0.054932	-0.028992	-0.008392	-0.099945	-0.24048	0.061798	0.014191	0.006104	0.096741	-0.003204	0.61386	0.001526	-0.000458	-0.002747
13.807	-0.045013	0.14496	0.068054	0.010376	-0.10742	-0.064545	0.050201	-0.009003	-0.26108	-0.029907	0.003052	0.003662	-0.11566	0.00351	-0.18524	0.010223	0.006256	-0.2211	-0.088501	-0.059204	-0.007019	-0.087891	-0.2626	0.071869	0.053864	-0.010223	-0.051117	-0.006866	0.61539	0.32333	0.001373	-0.00885
